<svg xmlns="http://www.w3.org/2000/svg" xmlns:xlink="http://www.w3.org/1999/xlink" version="1.1"  x="0px" y="0px" width="32" height="32" viewBox="0 0 32 32" style="enable-background:new 0 0 32 32;" xml:space="preserve" viewbox="0 0 32 32">
<path d="M29,10H11V9c-0.37,0-0.7,0.07-1,0.17C8.67,9.67,8,11,8,11v1H7H5c-2,0-2,2-2,2v2l-2,1v4c0,2,2,2,2,2c0,1.66,1.34,3,3,3  s3-1.34,3-3h2c0,1.66,1.34,3,3,3s3-1.34,3-3h1c0,1.66,1.34,3,3,3s3-1.34,3-3h1c0,1.66,1.34,3,3,3s3-1.34,3-3v-4v-1v-6  C31,10,29,10,29,10z M4,14.01C4.01,13.55,4.19,13,5,13h2v3H4V14.01z M6,25c-1.1,0-2-0.9-2-2c0-0.36,0.1-0.71,0.27-1  c0.35-0.6,0.99-1,1.73-1s1.38,0.4,1.73,1C7.9,22.29,8,22.64,8,23C8,24.1,7.1,25,6,25z M14,25c-1.1,0-2-0.9-2-2  c0-0.36,0.1-0.71,0.27-1c0.35-0.6,0.99-1,1.73-1s1.38,0.4,1.73,1C15.9,22.29,16,22.64,16,23C16,24.1,15.1,25,14,25z M21,25  c-1.1,0-2-0.9-2-2c0-0.36,0.1-0.71,0.27-1c0.351-0.6,0.99-1,1.73-1s1.38,0.4,1.73,1C22.9,22.29,23,22.64,23,23  C23,24.1,22.1,25,21,25z M28,25c-1.1,0-2-0.9-2-2c0-0.36,0.1-0.71,0.27-1c0.351-0.6,0.99-1,1.73-1s1.38,0.4,1.73,1  C29.9,22.29,30,22.64,30,23C30,24.1,29.1,25,28,25z M30,20.77C29.47,20.29,28.77,20,28,20c-1.31,0-2.42,0.83-2.82,2H23.82  c-0.4-1.17-1.511-2-2.82-2s-2.42,0.83-2.82,2H16.82c-0.4-1.17-1.51-2-2.82-2s-2.42,0.83-2.82,2H8.82c-0.4-1.17-1.51-2-2.82-2  s-2.42,0.83-2.82,2H3.01C2.55,21.99,2,21.81,2,21v-3.38L3.231,17H8v-1v-3h1v-1.73c0.16-0.25,0.5-0.69,1-0.99V19h20V20.77z M30,18H11  v-7h17.99c0.46,0.01,1.01,0.2,1.01,1V18z"></path>
</svg>