<svg xmlns="http://www.w3.org/2000/svg" xmlns:xlink="http://www.w3.org/1999/xlink" version="1.1"  x="0px" y="0px" width="32" height="32" viewBox="0 0 32 32" style="enable-background:new 0 0 32 32;" xml:space="preserve" preserveAspectRatio="none" viewbox="0 0 32 32">
<path d="M26,15h-7v-1h7V15z M26,11h-7v1h7V11z M26,17h-7v1h7V17z M16,21H6v-1h0.101c0.357-1.759,1.641-3.173,3.317-3.733  l0.288-0.288L11,17.273l1.295-1.295l0.288,0.288c1.676,0.561,2.96,1.975,3.317,3.733H16V21z M14.858,20  c-0.326-1.258-1.245-2.272-2.44-2.731L11,18.688l-1.418-1.419C8.386,17.728,7.468,18.742,7.142,20H14.858z M26,20h-7v1h7V20z M29,8  v16c0,0.553-0.447,1-1,1H4c-0.552,0-1-0.447-1-1V8c0-0.553,0.448-1,1-1h24C28.553,7,29,7.447,29,8z M28,8H4v16h24V8z M8,13  c0-1.657,1.343-3,3-3s3,1.343,3,3s-1.343,3-3,3S8,14.657,8,13z M9,13c0,1.104,0.896,2,2,2s2-0.896,2-2s-0.896-2-2-2S9,11.896,9,13z"></path>
</svg>