<svg xmlns="http://www.w3.org/2000/svg" xmlns:xlink="http://www.w3.org/1999/xlink" version="1.1"  x="0px" y="0px" width="32" height="32" viewBox="0 0 32 32" style="enable-background:new 0 0 32 32;" xml:space="preserve" preserveAspectRatio="none" viewbox="0 0 32 32">
<path d="M24,4h1V3H7v1h1c0,5.849,2.385,8.078,5.405,10.9c0.379,0.354,0.767,0.717,1.166,1.1c-0.398,0.383-0.786,0.745-1.166,1.1  C10.386,19.922,8,22.151,8,28H7v1h18v-1h-1c0-5.85-2.391-8.082-5.416-10.908c-0.38-0.355-0.769-0.718-1.167-1.101  c0.394-0.376,0.776-0.731,1.151-1.08C21.604,12.089,24,9.859,24,4z M9,4h14c0,1.838-0.247,3.269-0.683,4.477l-6.297,3.498  L9.671,8.447C9.243,7.245,9,5.823,9,4z M23,28H9c0-0.622,0.036-1.186,0.089-1.723l6.932-3.852l6.889,3.827  C22.964,26.797,23,27.368,23,28z M16,16l-0.002,0.002c3.305,3.299,5.915,4.907,6.731,9.008l-6.709-3.728l-6.754,3.753  c0.811-4.123,3.427-5.729,6.732-9.033l-0.013-0.013l0.002-0.002c-2.354-2.352-4.354-3.846-5.605-6l5.638,3.132l5.576-3.098  c-1.256,2.139-3.255,3.627-5.609,5.966L16,16z"></path>
</svg>