<svg xmlns="http://www.w3.org/2000/svg" xmlns:xlink="http://www.w3.org/1999/xlink" version="1.1"  x="0px" y="0px" width="32" height="32" viewBox="0 0 40 40" style="enable-background:new 0 0 40 40;" xml:space="preserve" preserveAspectRatio="none" viewbox="0 0 32 32">
<path d="M32,10h-4V8c0,0,0-4-4-4h-8c0,0-4,0-4,4v2H8c-4,0-4,4-4,4v18c0,4,4,4,4,4h24c0,0,4,0,4-4V14C36,14,36,10,32,10z M14,8  c0,0,0-2,2-2h8c0,0,2,0,2,2v2H14V8z M23,14v4h-2l-1-1h-3v-2h3l1-1H23z M11,15h2v2h-2V15z M7,15h2v2H7V15z M10,22H7l2-2h2l2,2h6l2-2  h2l2,2h-3l-0.75,1.5L22,25h3l-2,2h-2l-2-2h-6l-2,2H9l-2-2h3l0.75-1.5L10,22z M33,31h-4l-2,2H13l-2-2H7v-2h26V31z M34,18l-1,1h-1  c0,0,0,6,0,7s-1,1-1,1s-1,0-2,0s-1-1-1-1v-3h-1v-2l1-2h-2l-1-1v-4l1-1h5.5c2,0,2.5,2,2.5,2V18z"></path>
</svg>