<svg xmlns="http://www.w3.org/2000/svg" xmlns:xlink="http://www.w3.org/1999/xlink" version="1.1"  x="0px" y="0px" width="32" height="32" viewBox="0 0 32 32" style="enable-background:new 0 0 32 32;" xml:space="preserve" preserveAspectRatio="none" viewbox="0 0 32 32">
<path d="M14.75,27c0-0.69,0.56-1.25,1.25-1.25s1.25,0.56,1.25,1.25s-0.56,1.25-1.25,1.25S14.75,27.69,14.75,27z M24,3v26  c0,0.553-0.447,1-1,1H9c-0.552,0-1-0.447-1-1V3c0-0.553,0.448-1,1-1h14C23.553,2,24,2.447,24,3z M23,25H9v3c0,0.553,0.448,1,1,1h12  c0.553,0,1-0.447,1-1V25z M23,7H9v17h14V7z M23,4c0-0.553-0.447-1-1-1H10C9.448,3,9,3.447,9,4v2h14V4z M13,5h6V4h-6V5z"></path>
</svg>