<svg xmlns="http://www.w3.org/2000/svg" xmlns:xlink="http://www.w3.org/1999/xlink" version="1.1"  x="0px" y="0px" width="32" height="32" viewBox="0 0 32 32" style="enable-background:new 0 0 32 32;" xml:space="preserve" viewbox="0 0 32 32">
<path d="M8,13c-1.657,0-3,1.343-3,3c0,1.656,1.343,3,3,3s3-1.344,3-3C11,14.343,9.657,13,8,13z M8,18c-1.103,0-2-0.897-2-2  c0-1.103,0.897-2,2-2s2,0.897,2,2C10,17.103,9.103,18,8,18z M16,13c-1.657,0-3,1.343-3,3c0,1.656,1.343,3,3,3c1.656,0,3-1.344,3-3  C19,14.343,17.656,13,16,13z M16,18c-1.103,0-2-0.897-2-2c0-1.103,0.897-2,2-2c1.103,0,2,0.897,2,2C18,17.103,17.103,18,16,18z   M24,13c-1.656,0-3,1.343-3,3c0,1.656,1.344,3,3,3s3-1.344,3-3C27,14.343,25.656,13,24,13z M24,18c-1.103,0-2-0.897-2-2  c0-1.103,0.897-2,2-2s2,0.897,2,2C26,17.103,25.103,18,24,18z"></path>
</svg>