<svg xmlns="http://www.w3.org/2000/svg" xmlns:xlink="http://www.w3.org/1999/xlink" version="1.1"  x="0px" y="0px" width="32" height="32" viewBox="0 0 32 32" style="enable-background:new 0 0 32 32;" xml:space="preserve" viewbox="0 0 32 32">
<path d="M15.5,4C8.6,4,3,9.6,3,16.5C3,23.4,8.6,29,15.5,29C22.4,29,28,23.4,28,16.5C28,9.6,22.4,4,15.5,4z M15.5,28  C9.16,28,4,22.84,4,16.5S9.16,5,15.5,5S27,10.16,27,16.5S21.84,28,15.5,28z M15.5,7C10.25,7,6,11.25,6,16.5s4.25,9.5,9.5,9.5  s9.5-4.25,9.5-9.5S20.75,7,15.5,7z M15.5,8c3.75,0,6.94,2.44,8.06,5.82C23.28,14.1,22.29,15,20.5,15c-0.8,0-1.22-0.17-1.75-0.39  c-0.7-0.28-1.5-0.61-3.25-0.61s-2.55,0.33-3.25,0.61C11.72,14.83,11.3,15,10.5,15c-1.81,0-2.8-0.91-3.06-1.19  C8.57,10.43,11.75,8,15.5,8z M11.43,23.96c-1.63-0.89-2.94-2.3-3.7-4.02c0.03-0.011,0.06-0.021,0.08-0.04  c1.46-1.141,2.74-1.48,3.72-1C12.5,19.37,13,20.56,13,21.5C13,22.86,11.85,23.7,11.43,23.96z M19.57,23.96  C19.15,23.7,18,22.86,18,21.5c0-0.94,0.5-2.13,1.47-2.6c0.98-0.48,2.261-0.141,3.721,1c0.02,0.02,0.05,0.029,0.079,0.04  C22.51,21.66,21.2,23.07,19.57,23.96z M19.03,18c-1.4,0.68-2.03,2.29-2.03,3.5c0,1.42,0.85,2.4,1.51,2.94  C17.57,24.81,16.56,25,15.5,25c-1.06,0-2.07-0.19-3.01-0.56C13.15,23.9,14,22.92,14,21.5c0-1.21-0.64-2.82-2.03-3.5  c-0.9-0.45-2.43-0.63-4.6,0.97C7.13,18.19,7,17.36,7,16.5c0-0.56,0.05-1.11,0.16-1.64C7.26,14.97,8.39,16,10.5,16  c1,0,1.57-0.23,2.13-0.46C13.28,15.27,13.95,15,15.5,15s2.22,0.27,2.87,0.54C18.93,15.77,19.5,16,20.5,16  c2.11,0,3.24-1.03,3.34-1.14C23.95,15.39,24,15.94,24,16.5c0,0.86-0.13,1.69-0.37,2.47C21.46,17.37,19.94,17.55,19.03,18z"></path>
</svg>