<svg xmlns="http://www.w3.org/2000/svg" xmlns:xlink="http://www.w3.org/1999/xlink" version="1.1"  x="0px" y="0px" width="32" height="32" viewBox="0 0 32 32" style="enable-background:new 0 0 32 32;" xml:space="preserve" viewbox="0 0 32 32">
<path d="M15.458,9.043C16.43,10.635,17,12.499,17,14.5s-0.57,3.865-1.542,5.456l-0.907-0.432C15.464,18.066,16,16.348,16,14.5  s-0.536-3.566-1.448-5.025L15.458,9.043z M28.994,14.501c0,5.802-5.817,10.505-12.994,10.505c-0.619,0-1.224-0.047-1.819-0.115  l-4.173,4.514l-0.023-5.597c-4.146-1.755-6.979-5.261-6.979-9.307C3.006,8.699,8.824,3.996,16,3.996  C23.177,3.996,28.994,8.699,28.994,14.501z M28.005,14.501c0-5.246-5.375-9.499-12.005-9.499S3.996,9.255,3.996,14.501  c0,3.831,2.873,7.125,7.001,8.627l0,3.664l2.805-2.958C14.516,23.938,15.249,24,16,24C22.63,24,28.005,19.747,28.005,14.501z   M11.056,11.14C11.651,12.121,12,13.269,12,14.5s-0.349,2.379-0.944,3.36l0.907,0.432C12.618,17.179,13,15.885,13,14.5  s-0.382-2.678-1.037-3.792L11.056,11.14z M18.047,7.811C19.277,9.747,20,12.037,20,14.5c0,2.463-0.723,4.754-1.953,6.689  l0.907,0.432C20.243,19.552,21,17.117,21,14.5s-0.757-5.052-2.046-7.121L18.047,7.811z"></path>
</svg>